<svg width="100" height="100" viewBox="0 0 100 100" fill="none" xmlns="http://www.w3.org/2000/svg">
<rect width="100" height="100" rx="50" fill="#1D1D1D"/>
<path d="M32.616 67.856C30.376 67.856 28.376 67.52 26.616 66.848C24.856 66.176 23.48 65.232 22.488 64.016C21.496 62.768 21 61.344 21 59.744C21 59.456 21.032 59.024 21.096 58.448H30.168C30.136 59.344 30.408 60.032 30.984 60.512C31.56 60.992 32.36 61.232 33.384 61.232C34.184 61.232 34.84 61.072 35.352 60.752C35.896 60.432 36.168 60.016 36.168 59.504C36.168 58.896 35.832 58.432 35.16 58.112C34.488 57.76 33.368 57.328 31.8 56.816C29.976 56.24 28.472 55.68 27.288 55.136C26.104 54.592 25.064 53.792 24.168 52.736C23.304 51.68 22.872 50.32 22.872 48.656C22.872 47.056 23.336 45.616 24.264 44.336C25.224 43.056 26.568 42.064 28.296 41.36C30.024 40.624 32.024 40.256 34.296 40.256C36.728 40.256 38.824 40.672 40.584 41.504C42.376 42.304 43.704 43.424 44.568 44.864C45.464 46.304 45.864 47.904 45.768 49.664H37.32C37.352 48.8 37.096 48.128 36.552 47.648C36.008 47.136 35.224 46.88 34.2 46.88C33.464 46.88 32.856 47.04 32.376 47.36C31.896 47.68 31.656 48.096 31.656 48.608C31.656 49.216 31.992 49.696 32.664 50.048C33.368 50.4 34.536 50.848 36.168 51.392C37.96 51.968 39.448 52.544 40.632 53.12C41.848 53.664 42.888 54.448 43.752 55.472C44.616 56.464 45.048 57.744 45.048 59.312C45.048 61.968 43.896 64.064 41.592 65.6C39.288 67.104 36.296 67.856 32.616 67.856Z" fill="#FFF3B0"/>
<path d="M61.6732 44.336C62.6012 43.088 63.8013 42.096 65.2733 41.36C66.7773 40.624 68.4413 40.256 70.2653 40.256C73.0813 40.256 75.3373 41.184 77.0333 43.04C78.7613 44.896 79.6253 47.44 79.6253 50.672C79.6253 51.696 79.5292 52.816 79.3372 54.032C78.8253 56.816 77.8813 59.264 76.5052 61.376C75.1292 63.456 73.4653 65.056 71.5133 66.176C69.5933 67.296 67.5613 67.856 65.4173 67.856C63.5613 67.856 62.0252 67.504 60.8092 66.8C59.6252 66.064 58.7773 65.056 58.2653 63.776L57.5933 67.52H48.1373L54.4253 32H63.8812L61.6732 44.336ZM69.7373 54.032C69.8333 53.552 69.8813 53.088 69.8813 52.64C69.8813 51.328 69.4973 50.304 68.7293 49.568C67.9933 48.832 67.0333 48.464 65.8493 48.464C64.4733 48.464 63.2093 48.96 62.0573 49.952C60.9373 50.944 60.2333 52.304 59.9453 54.032C59.8493 54.512 59.8013 54.96 59.8013 55.376C59.8013 56.72 60.1693 57.776 60.9053 58.544C61.6733 59.28 62.6493 59.648 63.8333 59.648C65.2413 59.648 66.5053 59.152 67.6253 58.16C68.7453 57.136 69.4493 55.76 69.7373 54.032Z" fill="#FFF3B0"/>
</svg>
