<svg width="100" height="100" viewBox="0 0 100 100" fill="none" xmlns="http://www.w3.org/2000/svg">
<rect width="100" height="100" rx="50" fill="#1D1D1D"/>
<path d="M32.616 63.856C30.376 63.856 28.376 63.52 26.616 62.848C24.856 62.176 23.48 61.232 22.488 60.016C21.496 58.768 21 57.344 21 55.744C21 55.456 21.032 55.024 21.096 54.448H30.168C30.136 55.344 30.408 56.032 30.984 56.512C31.56 56.992 32.36 57.232 33.384 57.232C34.184 57.232 34.84 57.072 35.352 56.752C35.896 56.432 36.168 56.016 36.168 55.504C36.168 54.896 35.832 54.432 35.16 54.112C34.488 53.76 33.368 53.328 31.8 52.816C29.976 52.24 28.472 51.68 27.288 51.136C26.104 50.592 25.064 49.792 24.168 48.736C23.304 47.68 22.872 46.32 22.872 44.656C22.872 43.056 23.336 41.616 24.264 40.336C25.224 39.056 26.568 38.064 28.296 37.36C30.024 36.624 32.024 36.256 34.296 36.256C36.728 36.256 38.824 36.672 40.584 37.504C42.376 38.304 43.704 39.424 44.568 40.864C45.464 42.304 45.864 43.904 45.768 45.664H37.32C37.352 44.8 37.096 44.128 36.552 43.648C36.008 43.136 35.224 42.88 34.2 42.88C33.464 42.88 32.856 43.04 32.376 43.36C31.896 43.68 31.656 44.096 31.656 44.608C31.656 45.216 31.992 45.696 32.664 46.048C33.368 46.4 34.536 46.848 36.168 47.392C37.96 47.968 39.448 48.544 40.632 49.12C41.848 49.664 42.888 50.448 43.752 51.472C44.616 52.464 45.048 53.744 45.048 55.312C45.048 57.968 43.896 60.064 41.592 61.6C39.288 63.104 36.296 63.856 32.616 63.856Z" fill="#FFF3B0"/>
<path d="M61.6732 40.336C62.6012 39.088 63.8013 38.096 65.2733 37.36C66.7773 36.624 68.4413 36.256 70.2653 36.256C73.0813 36.256 75.3373 37.184 77.0333 39.04C78.7613 40.896 79.6253 43.44 79.6253 46.672C79.6253 47.696 79.5292 48.816 79.3372 50.032C78.8253 52.816 77.8813 55.264 76.5052 57.376C75.1292 59.456 73.4653 61.056 71.5133 62.176C69.5933 63.296 67.5613 63.856 65.4173 63.856C63.5613 63.856 62.0252 63.504 60.8092 62.8C59.6252 62.064 58.7773 61.056 58.2653 59.776L57.5933 63.52H48.1373L54.4253 28H63.8812L61.6732 40.336ZM69.7373 50.032C69.8333 49.552 69.8813 49.088 69.8813 48.64C69.8813 47.328 69.4973 46.304 68.7293 45.568C67.9933 44.832 67.0333 44.464 65.8493 44.464C64.4733 44.464 63.2093 44.96 62.0573 45.952C60.9373 46.944 60.2333 48.304 59.9453 50.032C59.8493 50.512 59.8013 50.96 59.8013 51.376C59.8013 52.72 60.1693 53.776 60.9053 54.544C61.6733 55.28 62.6493 55.648 63.8333 55.648C65.2413 55.648 66.5053 55.152 67.6253 54.16C68.7453 53.136 69.4493 51.76 69.7373 50.032Z" fill="#FFF3B0"/>
</svg>
